HIERARCHY
ROOT Hips
{
	OFFSET -3.958830 18.904000 13.208200
	CHANNELS 6 Xposition Yposition Zposition Zrotation Yrotation Xrotation 
	JOINT LHipJoint
	{
		OFFSET 0.000000 0.000000 0.000000
		CHANNELS 3 Zrotation Yrotation Xrotation
		JOINT LeftUpLeg
		{
			OFFSET 1.800000 -1.400000 0.085000
			CHANNELS 3 Zrotation Yrotation Xrotation
			JOINT LeftLeg
			{
				OFFSET 2.215000 -6.000000 0.000000
				CHANNELS 3 Zrotation Yrotation Xrotation
				JOINT LeftFoot
				{
					OFFSET 2.500000 -6.900000 0.000000
					CHANNELS 3 Zrotation Yrotation Xrotation
					JOINT LeftToeBase
					{
						OFFSET 0.200000 -0.500000 1.950000
						CHANNELS 3 Zrotation Yrotation Xrotation
						End Site
						{
							OFFSET 0.000000 0.000000 0.000000
						}
					}
				}
			}
		}
	}
	JOINT RHipJoint
	{
		OFFSET 0.000000 0.000000 0.000000
		CHANNELS 3 Zrotation Yrotation Xrotation
		JOINT RightUpLeg
		{
			OFFSET -1.800000 -1.400000 0.085000
			CHANNELS 3 Zrotation Yrotation Xrotation
			JOINT RightLeg
			{
				OFFSET -2.215000 -6.000000 0.000000
				CHANNELS 3 Zrotation Yrotation Xrotation
				JOINT RightFoot
				{
					OFFSET -2.500000 -6.900000 0.000000
					CHANNELS 3 Zrotation Yrotation Xrotation
					JOINT RightToeBase
					{
						OFFSET -0.200000 -0.500000 1.950000
						CHANNELS 3 Zrotation Yrotation Xrotation
						End Site
						{
							OFFSET 0.000000 0.000000 0.000000
						}
					}
				}
			}
		}
	}
	JOINT LowerBack
	{
		OFFSET 0.000000 0.000000 0.000000
		CHANNELS 3 Zrotation Yrotation Xrotation
		JOINT Spine
		{
			OFFSET -0.087000 1.940000 -0.288900
			CHANNELS 3 Zrotation Yrotation Xrotation
			JOINT Spine1
			{
				OFFSET 0.000000 1.950000 0.060000
				CHANNELS 3 Zrotation Yrotation Xrotation
				JOINT Neck
				{
					OFFSET 0.000000 0.000000 0.000000
					CHANNELS 3 Zrotation Yrotation Xrotation
					JOINT Neck1
					{
						OFFSET 0.000000 1.600000 0.340000
						CHANNELS 3 Zrotation Yrotation Xrotation
						JOINT Head
						{
							OFFSET 0.000000 1.667000 -0.240000
							CHANNELS 3 Zrotation Yrotation Xrotation
							End Site
							{
								OFFSET 0.000000 0.000000 0.000000
							}
						}
					}
				}
				JOINT LeftShoulder
				{
					OFFSET 0.000000 0.000000 0.000000
					CHANNELS 3 Zrotation Yrotation Xrotation
					JOINT LeftArm
					{
						OFFSET 2.700000 1.550000 -0.730000
						CHANNELS 3 Zrotation Yrotation Xrotation
						JOINT LeftForeArm
						{
							OFFSET 5.450000 0.000000 0.000000
							CHANNELS 3 Zrotation Yrotation Xrotation
							JOINT LeftHand
							{
								OFFSET 3.450000 0.000000 0.000000
								CHANNELS 3 Zrotation Yrotation Xrotation
								JOINT LeftHandIndex1
								{
									OFFSET 0.750000 0.000000 0.000000
									CHANNELS 3 Zrotation Yrotation Xrotation
									End Site
									{
										OFFSET 0.000000 0.000000 0.000000
									}
								}
							}
						}
					}
				}
				JOINT RightShoulder
				{
					OFFSET 0.000000 0.000000 0.000000
					CHANNELS 3 Zrotation Yrotation Xrotation
					JOINT RightArm
					{
						OFFSET -2.700000 1.550000 -0.730000
						CHANNELS 3 Zrotation Yrotation Xrotation
						JOINT RightForeArm
						{
							OFFSET -5.450000 0.000000 0.000000
							CHANNELS 3 Zrotation Yrotation Xrotation
							JOINT RightHand
							{
								OFFSET -3.450000 0.000000 0.000000
								CHANNELS 3 Zrotation Yrotation Xrotation
								JOINT RightHandIndex1
								{
									OFFSET -0.750000 0.000000 0.000000
									CHANNELS 3 Zrotation Yrotation Xrotation
									End Site
									{
										OFFSET 0.000000 0.000000 0.000000
									}
								}
							}
						}
					}
				}
			}
		}
	}
}
MOTION
Frames: 10
Frame Time: 0.016667
-2.785430 17.805790 -1.277540 0.558899 -1.653336 -1.618724 -15.336935 14.054345 2.897607 10.340297 -0.208983 -3.919003 -5.777182 5.275245 5.519654 -0.162055 4.490221 3.068578 0.229290 0.277320 0.119710 18.089194 -10.645951 2.059444 -8.164104 0.881919 -20.095223 1.158502 -4.212740 21.195912 0.089255 -3.201937 3.109103 0.356400 0.245950 0.113910 -3.043064 -3.571156 -6.772033 4.888597 -6.182934 5.750216 -5.854831 -5.060805 21.493822 0.477899 -2.466888 -10.938353 -9.122832 3.159872 38.715472 -4.134040 2.393680 -2.958740 -12.937961 -13.205705 6.043850 -62.521192 -47.758132 32.789396 -40.945281 -87.440331 36.618120 -3.801979 3.584544 -0.103850 0.284080 -0.131930 0.074810 11.761129 12.511098 7.762018 56.677630 20.956226 7.998446 -166.289843 66.841137 -171.545017 1.873821 -2.174906 -0.106840 0.171350 0.017300 -0.022020 
-2.773710 17.799360 -1.279110 0.557454 -1.077946 -1.654981 -15.312268 14.013135 2.870330 10.218923 -0.200796 -4.130857 -5.679463 5.266113 5.772668 -0.165563 4.447380 3.081882 0.226560 0.271850 0.115480 18.106608 -10.714300 2.064264 -8.592655 0.773773 -19.784560 1.607503 -4.360300 20.873395 0.086767 -3.235732 3.099986 0.350380 0.244770 0.112520 -3.113644 -3.377822 -6.753324 5.180330 -5.856830 5.698209 -5.630281 -4.851100 21.383469 0.527399 -2.344437 -10.775253 -8.736444 2.876834 38.804032 -4.008810 2.128270 -2.857690 -13.687475 -13.177522 5.971552 -62.225870 -46.249827 32.046237 -45.629265 -88.387415 41.166547 -3.835448 3.580653 -0.103470 0.280190 -0.133360 0.075280 12.484687 12.542527 7.711544 57.657351 21.525055 8.234552 -168.143118 67.757837 -174.244228 1.869206 -2.147106 -0.104750 0.168030 0.017250 -0.020040 
-2.759130 17.794810 -1.281680 0.551482 -0.461699 -1.767144 -15.278612 13.970423 2.834216 10.044831 -0.180525 -4.306438 -5.465318 5.249146 6.137434 -0.168692 4.391634 3.098322 0.218090 0.260550 0.108180 18.130531 -10.802410 2.072739 -9.055126 0.650722 -19.466194 2.055280 -4.537107 20.675487 0.081234 -3.284011 3.084568 0.338950 0.240130 0.107860 -3.207337 -3.143157 -6.735679 5.540435 -5.567306 5.726762 -5.547071 -4.668871 21.151491 0.657689 -2.165635 -10.572217 -8.261588 2.548617 39.166825 -3.866890 1.805680 -2.701560 -14.520344 -13.347657 5.789513 -61.071163 -44.146007 31.071443 -55.701258 -89.736981 50.782693 -3.928262 3.468469 -0.099140 0.271200 -0.132270 0.073340 13.159425 12.722726 7.694998 58.452060 22.267382 8.248807 -171.625398 69.386518 -179.077896 1.860855 -2.088722 -0.103580 0.164770 0.019230 -0.018140 
-2.745740 17.788890 -1.284930 0.587322 0.228141 -1.857304 -15.241608 13.908633 2.799332 9.866265 -0.167987 -4.480300 -5.315374 5.231495 6.453774 -0.174455 4.336151 3.113895 0.212900 0.252660 0.104110 18.159105 -10.901403 2.081102 -9.512661 0.532192 -19.222183 2.404862 -4.696496 20.553408 0.072826 -3.332675 3.067031 0.329990 0.234090 0.102420 -3.313330 -2.858579 -6.716313 5.814901 -5.240749 5.747131 -5.483443 -4.444449 20.864756 0.864799 -1.826786 -10.317952 -7.432209 2.180110 39.635387 -3.586480 1.500740 -2.657240 -15.157954 -13.408419 5.530483 -59.679311 -41.943631 30.803105 111.148820 -88.420086 -116.574268 -4.173392 2.765761 -0.090900 0.259950 -0.128740 0.071350 13.560357 12.727812 7.613581 59.186796 23.186892 8.180402 -177.200522 71.438451 173.701862 1.843552 -1.992085 -0.103460 0.163850 0.020280 -0.017670 
-2.734870 17.781590 -1.287560 0.624850 0.869990 -1.924162 -15.187302 13.810127 2.755224 9.712190 -0.162130 -4.606225 -5.206067 5.213239 6.736700 -0.176284 4.281166 3.130733 0.207790 0.243590 0.100780 18.207952 -11.022617 2.093763 -9.903892 0.434292 -19.098592 2.685439 -4.851887 20.543860 0.063317 -3.391004 3.046866 0.318820 0.228990 0.100160 -3.473204 -2.466738 -6.684079 6.089658 -4.837151 5.735435 -5.366408 -4.137799 20.449691 1.234300 -1.460439 -10.018244 -6.464835 1.786353 40.232872 -3.389940 1.213790 -2.493150 -15.556668 -13.047461 5.018783 -58.621388 -39.858913 28.994988 95.189803 -88.882163 -101.217288 -4.556863 0.234621 -0.085430 0.251400 -0.125450 0.070690 13.663371 12.409333 7.478662 59.923268 24.254866 8.167357 174.821354 73.439938 164.015339 1.823968 -1.839984 -0.100740 0.159810 0.019800 -0.016310 
-2.725610 17.773670 -1.290140 0.742552 1.514951 -2.022847 -15.143867 13.738196 2.736813 9.574368 -0.155316 -4.729578 -5.216781 5.220956 6.995739 -0.172118 4.240626 3.143890 0.200900 0.233590 0.094190 18.239505 -11.137876 2.110936 -10.332580 0.334137 -19.037253 2.888011 -5.005921 20.699740 0.057228 -3.454408 3.023175 0.307310 0.227510 0.098440 -3.592669 -2.147414 -6.709153 6.367112 -4.543316 5.979847 -5.598273 -3.937029 19.922364 1.489184 -1.044648 -9.948340 -5.441174 1.368659 40.872231 -3.149650 0.897670 -2.209410 -15.904542 -12.962089 4.713387 -56.569410 -37.360871 20.110411 -103.939885 -84.627815 95.664728 -4.061679 -0.254532 -0.083770 0.245310 -0.124540 0.071400 13.637534 12.171428 7.337496 60.761980 25.476135 8.169721 163.029631 75.057812 150.271993 1.817703 -1.575452 -0.097670 0.155350 0.019650 -0.012640 
-2.718210 17.765910 -1.291450 0.884320 1.942387 -2.135530 -15.115427 13.705987 2.740465 9.419227 -0.131297 -4.761812 -5.269070 5.239580 7.181680 -0.168280 4.217761 3.150169 0.195450 0.227260 0.088190 18.252858 -11.220824 2.128481 -10.691306 0.260932 -18.984134 2.990282 -5.106123 20.834554 0.055240 -3.495402 3.006438 0.300380 0.225520 0.095120 -3.663368 -1.952782 -6.762990 6.715966 -4.400732 6.124057 -6.146261 -3.858251 19.759512 1.574460 -0.771631 -9.945299 -4.756506 1.125648 41.278391 -2.966370 0.633760 -2.088260 -16.094713 -13.134317 5.009356 -53.940874 -34.264459 14.811644 -126.152950 -82.689424 119.039821 -3.577609 1.773427 -0.080980 0.238870 -0.123290 0.070750 13.424432 12.219162 7.163182 61.589818 27.041664 8.134233 148.371388 75.875982 133.399384 1.836394 -1.097671 -0.096670 0.154480 0.021070 -0.010000 
-2.711990 17.760930 -1.293580 1.036246 2.319809 -2.214452 -15.079311 13.652078 2.729508 9.256618 -0.112973 -4.775373 -5.328403 5.254250 7.345221 -0.166196 4.195169 3.156074 0.195170 0.224700 0.087360 18.281035 -11.304819 2.132831 -11.004943 0.191222 -18.961095 2.943507 -5.153494 20.918063 0.050978 -3.524878 2.994698 0.295510 0.221720 0.093850 -3.766262 -1.708553 -6.764992 7.072650 -4.205383 6.146511 -6.626445 -3.720637 19.666950 1.730322 -0.584118 -9.849093 -4.168164 0.941293 41.552319 -2.800750 0.408510 -2.073910 -16.287657 -12.803914 5.187657 -51.729813 -31.538981 13.235620 -153.683583 -82.849532 148.243393 -3.577402 2.908330 -0.076800 0.231910 -0.120320 0.070810 13.253983 11.931754 6.866057 62.417241 28.418748 8.347493 134.704126 75.721540 117.006272 1.953228 -0.372256 -0.094260 0.152830 0.020100 -0.008580 
-2.705610 17.760050 -1.294740 1.194931 2.620776 -2.290517 -15.043628 13.589658 2.713705 9.078447 -0.086186 -4.739317 -5.424891 5.282168 7.515988 -0.160082 4.180199 3.160239 0.192990 0.220550 0.084740 18.312817 -11.386441 2.132287 -11.340333 0.111527 -18.921819 2.905028 -5.196537 20.924185 0.046816 -3.552819 2.983620 0.289180 0.218920 0.094100 -3.871804 -1.451869 -6.744339 7.446423 -4.012653 6.142237 -7.149765 -3.584797 19.517367 1.931354 -0.471217 -9.716310 -3.695966 0.864545 41.878272 -2.725400 0.265050 -1.965320 -16.570496 -12.222906 5.268269 -49.692148 -28.906743 11.856924 -179.432414 -82.199697 175.684344 -3.665184 3.330886 -0.074650 0.226820 -0.117880 0.071220 13.136741 11.478148 6.465078 63.197799 29.615118 9.381239 124.103186 75.326523 103.133471 2.245168 0.500768 -0.090990 0.149350 0.019650 -0.006420 
-2.699770 17.763410 -1.293530 1.331879 2.795506 -2.379336 -15.007449 13.523285 2.697345 8.865567 -0.051876 -4.586443 -5.437984 5.281460 7.598291 -0.152867 4.160873 3.167000 0.193200 0.218840 0.084420 18.346893 -11.467024 2.133972 -11.644015 0.035811 -18.916131 2.916779 -5.259301 20.965088 0.040876 -3.583558 2.971293 0.283630 0.214320 0.094170 -3.978339 -1.188378 -6.717705 7.885606 -3.822609 6.119152 -7.726597 -3.447717 19.400010 2.147569 -0.421384 -9.579015 -3.325665 0.881317 42.254117 -2.644990 0.156540 -1.897770 -16.876955 -11.553534 5.338068 -47.783543 -26.358122 10.573070 157.275674 -80.563464 -158.760803 -3.775127 3.492971 -0.071070 0.220270 -0.113760 0.071910 13.027230 11.006164 6.081471 64.014648 30.553236 11.391218 117.912537 75.023780 93.853716 2.600226 1.040738 -0.087000 0.145970 0.017680 -0.004690 
